<svg width="20" height="20" viewBox="0 0 20 20" fill="none" xmlns="http://www.w3.org/2000/svg">
<path d="M1 7V13C1 15.8284 1 17.2426 1.87868 18.1213C2.75736 19 4.17157 19 7 19H13C15.8284 19 17.2426 19 18.1213 18.1213C19 17.2426 19 15.8284 19 13V7C19 4.17157 19 2.75736 18.1213 1.87868C17.2426 1 15.8284 1 13 1H7" stroke="white" stroke-linecap="round"/>
<path d="M13 13V13.5H13.5V13H13ZM5.35355 4.64645C5.15829 4.45118 4.84171 4.45118 4.64645 4.64645C4.45118 4.84171 4.45118 5.15829 4.64645 5.35355L5.35355 4.64645ZM12.5 6V13H13.5V6H12.5ZM13 12.5H6V13.5H13V12.5ZM13.3536 12.6464L5.35355 4.64645L4.64645 5.35355L12.6464 13.3536L13.3536 12.6464Z" fill="white"/>
</svg>
