<svg width="74" height="74" viewBox="0 0 74 74" fill="none" xmlns="http://www.w3.org/2000/svg">
<path d="M58.864 29.368C67.609 30.746 73.227 38.59 73.227 46.169C73.227 53.854 67.556 61.698 58.864 63.076C58.864 63.341 58.864 63.659 58.864 63.924C58.864 66.68 58.864 69.436 58.864 72.139C58.864 73.199 58.44 73.623 57.38 73.676C57.168 73.676 56.956 73.676 56.744 73.676C38.565 73.676 20.439 73.676 2.26001 73.676C1.94201 73.676 1.67701 73.676 1.35901 73.623C0.617014 73.517 0.193015 73.093 0.140015 72.351C0.140015 72.139 0.140015 71.98 0.140015 71.768C0.140015 51.469 0.140015 31.17 0.140015 10.924C0.140015 9.38703 0.511014 9.01603 2.04801 9.01603C5.70501 9.01603 9.36201 9.01603 13.178 9.01603C13.178 7.95603 13.178 6.89603 13.178 5.83603C13.178 4.72303 13.602 4.24603 14.768 4.24603C15.298 4.24603 15.775 4.24603 16.464 4.24603C16.464 3.50403 16.464 2.81503 16.464 2.12603C16.464 0.907032 16.888 0.483032 18.054 0.483032C26.11 0.483032 34.219 0.483032 42.275 0.483032C43.388 0.483032 43.865 0.907031 43.865 2.07303C43.865 2.70903 43.865 3.34503 43.865 3.92803C43.865 3.98103 43.865 4.03403 43.918 4.24603C44.501 4.24603 45.084 4.24603 45.667 4.24603C46.674 4.24603 47.151 4.72303 47.151 5.78303C47.151 6.84303 47.151 7.90303 47.151 9.01603C47.787 9.01603 48.37 9.01603 48.9 9.01603C51.603 9.01603 54.359 9.01603 57.062 9.01603C58.493 9.01603 58.864 9.44003 58.864 10.871C58.864 16.701 58.864 22.584 58.864 28.414C58.864 28.732 58.864 28.997 58.864 29.368ZM47.151 11.719C47.151 12.09 47.151 12.408 47.151 12.726C47.151 14.687 46.939 14.899 44.925 14.899C35.067 14.899 25.262 14.899 15.404 14.899C15.139 14.899 14.874 14.899 14.609 14.899C13.655 14.846 13.231 14.369 13.231 13.468C13.231 12.885 13.231 12.355 13.231 11.719C9.73302 11.719 6.28801 11.719 2.84301 11.719C2.84301 31.488 2.84301 51.204 2.84301 70.973C20.651 70.973 38.459 70.973 56.267 70.973C56.267 68.376 56.267 65.779 56.267 63.235C47.204 63.129 40.049 56.186 39.413 47.547C39.095 43.36 40.155 39.491 42.699 36.152C46.091 31.647 50.702 29.368 56.32 29.209C56.32 23.379 56.32 17.602 56.32 11.772C53.193 11.719 50.225 11.719 47.151 11.719ZM56.267 60.585C64.164 60.585 70.63 54.066 70.63 46.169C70.63 38.325 64.164 31.859 56.32 31.859C48.423 31.859 41.957 38.325 41.957 46.222C41.904 54.066 48.423 60.585 56.267 60.585ZM41.268 3.18603C33.795 3.18603 26.481 3.18603 19.061 3.18603C19.061 3.92803 19.061 4.61703 19.061 5.25303C19.061 6.41903 18.637 6.84303 17.418 6.84303C16.888 6.84303 16.358 6.84303 15.881 6.84303C15.881 8.69803 15.881 10.447 15.881 12.196C25.474 12.196 34.961 12.196 44.501 12.196C44.501 10.394 44.501 8.64503 44.501 6.84303C43.918 6.84303 43.441 6.84303 42.911 6.84303C41.692 6.84303 41.268 6.41903 41.268 5.25303C41.268 4.61703 41.268 3.92803 41.268 3.18603Z" fill="black"/>
<path d="M34.643 25.393C30.986 25.393 27.382 25.393 23.725 25.393C23.407 25.393 22.983 25.499 22.771 25.34C22.347 25.075 21.923 24.704 21.764 24.28C21.552 23.697 21.923 23.167 22.506 22.955C22.824 22.849 23.248 22.796 23.619 22.796C31.039 22.796 38.459 22.796 45.879 22.796C46.197 22.796 46.515 22.796 46.833 22.902C47.469 23.114 47.84 23.538 47.787 24.227C47.734 24.916 47.31 25.34 46.674 25.393C46.356 25.446 46.091 25.446 45.773 25.446C42.063 25.393 38.353 25.393 34.643 25.393Z" fill="black"/>
<path d="M17.1 24.068C17.1 26.612 15.086 28.626 12.595 28.626C10.051 28.626 7.98401 26.612 7.98401 24.068C7.98401 21.577 9.99801 19.51 12.489 19.457C15.033 19.457 17.1 21.524 17.1 24.068ZM12.542 25.976C13.655 25.976 14.503 25.075 14.503 24.015C14.503 22.955 13.602 22.107 12.542 22.107C11.429 22.107 10.581 23.008 10.581 24.068C10.634 25.128 11.482 25.976 12.542 25.976Z" fill="black"/>
<path d="M17.1 61.9631C17.1 64.4541 15.086 66.5211 12.542 66.5211C9.99801 66.5211 7.98401 64.5071 7.98401 61.9101C7.98401 59.4191 10.051 57.3521 12.542 57.3521C15.086 57.3521 17.153 59.4191 17.1 61.9631ZM12.542 60.0021C11.482 60.0021 10.634 60.9031 10.634 61.9101C10.634 62.9701 11.535 63.8711 12.648 63.8181C13.708 63.8181 14.556 62.9171 14.556 61.9101C14.503 60.8501 13.602 60.0021 12.542 60.0021Z" fill="black"/>
<path d="M7.98401 43.625C7.98401 41.081 10.051 39.014 12.595 39.014C15.086 39.067 17.1 41.081 17.1 43.625C17.1 46.169 15.033 48.236 12.489 48.183C9.99801 48.183 7.98401 46.169 7.98401 43.625ZM12.542 45.586C13.655 45.586 14.503 44.685 14.503 43.625C14.503 42.565 13.655 41.717 12.595 41.717C11.482 41.717 10.634 42.565 10.634 43.678C10.634 44.738 11.482 45.586 12.542 45.586Z" fill="black"/>
<path d="M28.283 42.3C29.873 42.3 31.516 42.3 33.106 42.3C34.113 42.3 34.696 42.777 34.749 43.625C34.749 44.473 34.219 44.95 33.159 44.95C29.873 44.95 26.587 44.95 23.301 44.95C22.241 44.95 21.711 44.42 21.711 43.625C21.711 42.83 22.294 42.3 23.354 42.3C24.997 42.3 26.64 42.3 28.283 42.3Z" fill="black"/>
<path d="M28.124 63.2351C26.534 63.2351 24.891 63.2351 23.301 63.2351C22.241 63.2351 21.658 62.7581 21.658 61.9631C21.658 61.1151 22.241 60.6381 23.301 60.5851C26.587 60.5851 29.82 60.5851 33.106 60.5851C34.272 60.5851 35.014 61.4861 34.59 62.3871C34.325 63.0231 33.795 63.2351 33.159 63.2351C31.516 63.2351 29.82 63.2351 28.124 63.2351Z" fill="black"/>
<path d="M54.571 51.363C54.889 50.939 55.154 50.568 55.419 50.197C58.069 46.434 60.719 42.671 63.369 38.961C63.528 38.749 63.687 38.484 63.846 38.325C64.376 37.848 64.959 37.742 65.542 38.166C66.125 38.59 66.231 39.173 65.913 39.809C65.807 40.021 65.648 40.233 65.542 40.445C62.468 44.791 59.394 49.137 56.32 53.483C55.472 54.702 54.942 54.808 53.723 53.96C51.126 52.211 48.476 50.462 45.879 48.66C45.137 48.183 44.978 47.388 45.402 46.752C45.826 46.116 46.568 46.01 47.363 46.487C47.575 46.593 47.787 46.752 47.999 46.911C50.119 48.395 52.345 49.879 54.571 51.363Z" fill="black"/>
</svg>
