<svg width="69" height="74" viewBox="0 0 69 74" fill="none" xmlns="http://www.w3.org/2000/svg">
<path d="M2.854 73.2499C2.274 72.9019 1.578 72.6119 1.114 72.1479C0.359997 71.5099 0.0699977 70.5819 0.0699977 69.5959C0.0699977 66.4059 0.0699977 63.216 0.0699977 59.9679C0.0699977 59.0979 0.475999 58.6339 1.172 58.6339C1.868 58.6339 2.216 59.0979 2.216 60.0259C2.216 63.0419 2.216 66.1159 2.216 69.1319C2.216 70.6979 2.68 71.104 4.188 71.104C17.992 71.104 31.796 71.104 45.6 71.104C47.108 71.104 47.514 70.6399 47.514 69.1899C47.514 49.4119 47.514 29.6339 47.514 9.85595C47.514 8.40595 47.108 7.94195 45.658 7.94195C31.796 7.94195 17.934 7.94195 4.13 7.94195C2.68 7.94195 2.274 8.34795 2.274 9.85595C2.274 24.5299 2.274 39.2619 2.274 53.9359C2.274 54.2259 2.274 54.5739 2.216 54.8639C2.158 55.4439 1.752 55.7919 1.172 55.8499C0.591999 55.8499 0.243998 55.5019 0.0699977 54.9219C0.0119977 54.6899 0.0699977 54.5159 0.0699977 54.2839C0.0699977 39.4359 0.0699977 24.5879 0.0699977 9.73995C0.0699977 7.24595 1.52 5.79595 4.014 5.79595C4.42 5.79595 4.884 5.79595 5.406 5.79595C5.406 5.33195 5.406 4.92595 5.406 4.51995C5.464 2.37395 6.914 0.92395 9.06 0.92395C23.096 0.92395 37.19 0.92395 51.226 0.92395C53.43 0.92395 54.938 2.43195 54.938 4.63595C54.938 7.36195 54.938 10.0879 54.938 12.8139C54.938 13.3939 54.706 13.858 54.126 13.9739C53.604 14.0899 53.14 13.974 52.908 13.452C52.792 13.162 52.734 12.814 52.734 12.466C52.734 9.97195 52.734 7.47795 52.734 4.98395C52.734 3.41795 52.27 2.95395 50.704 2.95395C37.074 2.95395 23.444 2.95395 9.814 2.95395C7.61 2.95395 7.204 3.64995 7.436 5.73795C7.726 5.73795 8.016 5.73795 8.306 5.73795C20.892 5.73795 33.478 5.73795 46.064 5.73795C48.094 5.73795 49.486 6.72395 49.892 8.52195C50.008 8.92795 49.95 9.33395 49.95 9.73995C49.95 28.1839 49.95 46.6859 49.95 65.1299C49.95 65.4199 49.95 65.7679 49.95 66.1159C50.53 66.1159 51.11 66.2319 51.632 66.058C52.038 65.8839 52.386 65.4199 52.676 65.0139C52.85 64.7239 52.792 64.3179 52.792 63.9699C52.792 48.8319 52.792 33.752 52.792 18.614C52.792 18.324 52.792 18.034 52.792 17.744C52.85 17.164 53.198 16.8159 53.778 16.7579C54.358 16.6999 54.822 17.106 54.88 17.744C54.88 17.918 54.88 18.092 54.88 18.324C54.88 33.694 54.88 49.0639 54.88 64.3759C54.88 66.7539 53.43 68.2619 50.994 68.2619C50.53 68.2619 50.124 68.2619 49.544 68.2619C49.544 68.6679 49.544 69.0159 49.544 69.3639C49.544 71.2779 48.79 72.3799 46.992 73.0759C46.934 73.0759 46.876 73.1339 46.818 73.1919C32.26 73.2499 17.528 73.2499 2.854 73.2499Z" fill="black"/>
<path d="M57.664 39.2039C57.664 34.3899 57.664 29.5759 57.664 24.7039C57.664 22.7899 58.534 21.9199 60.448 21.8619C62.13 21.8619 63.812 21.8619 65.552 21.8619C67.176 21.8619 68.162 22.8479 68.162 24.4719C68.162 34.3319 68.162 44.1339 68.162 53.9939C68.162 54.3419 68.046 54.7479 67.872 55.0959C66.828 57.2419 65.726 59.4459 64.624 61.5919C64.276 62.2879 63.754 62.8679 62.942 62.8679C62.014 62.8679 61.55 62.3459 61.144 61.5919C60.042 59.4459 58.998 57.2419 57.896 55.0959C57.722 54.7479 57.664 54.2839 57.664 53.8779C57.664 49.0059 57.664 44.1339 57.664 39.2039ZM65.9 53.2979C65.9 45.7579 65.9 38.2759 65.9 30.7359C63.812 30.7359 61.84 30.7359 59.81 30.7359C59.81 38.2759 59.81 45.7579 59.81 53.2979C61.84 53.2979 63.812 53.2979 65.9 53.2979ZM65.958 28.5319C65.958 27.1399 65.958 25.8639 65.958 24.5299C65.958 24.3559 65.668 24.1239 65.494 24.1239C63.754 24.0659 62.014 24.0659 60.274 24.1239C60.1 24.1239 59.868 24.3559 59.868 24.4719C59.81 25.8059 59.868 27.1399 59.868 28.5319C61.84 28.5319 63.812 28.5319 65.958 28.5319ZM62.884 60.3159C63.696 58.6339 64.508 57.0679 65.262 55.5019C63.638 55.5019 62.072 55.5019 60.448 55.5019C61.26 57.1259 62.014 58.6919 62.884 60.3159Z" fill="black"/>
<path d="M18.05 11.48C21.066 11.48 24.024 11.48 27.04 11.48C28.954 11.48 29.882 12.408 29.882 14.264C29.882 20.296 29.882 26.386 29.882 32.418C29.882 34.274 28.896 35.202 27.098 35.202C21.008 35.202 14.976 35.202 8.886 35.202C7.146 35.202 6.16 34.216 6.16 32.418C6.16 26.328 6.16 20.296 6.16 14.206C6.16 12.466 7.146 11.48 8.944 11.48C11.902 11.48 14.976 11.48 18.05 11.48ZM27.736 23.37C27.736 20.354 27.736 17.396 27.736 14.38C27.736 13.8 27.562 13.568 26.924 13.568C20.95 13.568 15.034 13.568 9.06 13.568C8.364 13.568 8.248 13.8 8.248 14.438C8.248 20.354 8.248 26.328 8.248 32.244C8.248 32.882 8.422 33.114 9.118 33.114C15.034 33.114 21.008 33.114 26.924 33.114C27.562 33.114 27.794 32.94 27.794 32.244C27.678 29.286 27.736 26.328 27.736 23.37Z" fill="black"/>
<path d="M15.44 57.59C15.904 57.068 16.426 56.546 16.89 56.024C17.528 55.328 18.166 55.212 18.63 55.676C19.152 56.14 19.094 56.778 18.456 57.474C17.76 58.228 16.774 58.924 16.426 59.852C16.078 60.722 16.31 61.882 16.31 62.926C16.31 63.68 16.31 64.492 16.31 65.246C16.252 66.638 15.324 67.566 13.932 67.566C12.076 67.566 10.278 67.566 8.42201 67.566C6.97201 67.566 6.04401 66.638 6.04401 65.188C6.04401 63.332 6.04401 61.534 6.04401 59.678C6.04401 58.286 6.97201 57.3 8.36401 57.3C10.22 57.3 12.076 57.3 13.932 57.3C14.454 57.3 14.918 57.474 15.44 57.59ZM10.51 62.868C11.554 61.766 12.54 60.664 13.642 59.562C11.786 59.562 10.046 59.562 8.30601 59.562C9.06001 60.664 9.75601 61.766 10.51 62.868ZM11.09 65.362C12.192 65.362 13.178 65.362 14.106 65.362C14.106 64.318 14.106 63.274 14.106 62.114C13.12 63.274 12.134 64.26 11.09 65.362ZM8.30601 63.448C8.13201 65.478 8.01601 65.594 9.52401 65.246C9.17601 64.724 8.77001 64.144 8.30601 63.448Z" fill="black"/>
<path d="M24.836 47.4399C19.152 47.4399 13.468 47.4399 7.842 47.4399C6.682 47.4399 6.16 47.0919 6.16 46.3959C6.16 45.6419 6.682 45.2939 7.842 45.2939C19.21 45.2939 30.578 45.2939 41.946 45.2939C42.12 45.2939 42.352 45.2939 42.526 45.2939C43.164 45.3519 43.628 45.7579 43.57 46.3959C43.57 47.0339 43.164 47.3819 42.584 47.4399C42.352 47.4979 42.062 47.4399 41.83 47.4399C36.088 47.4399 30.462 47.4399 24.836 47.4399Z" fill="black"/>
<path d="M24.894 39.3199C30.578 39.3199 36.262 39.3199 41.888 39.3199C42.12 39.3199 42.352 39.3199 42.584 39.3199C43.164 39.3779 43.512 39.7259 43.512 40.3639C43.512 41.0019 43.164 41.3499 42.584 41.4659C42.352 41.5239 42.12 41.4659 41.888 41.4659C30.52 41.4659 19.094 41.4659 7.72601 41.4659C7.49401 41.4659 7.32001 41.4659 7.08801 41.4659C6.50801 41.4079 6.04401 40.9439 6.10201 40.3639C6.10201 39.7839 6.56601 39.3779 7.14601 39.3199C7.43601 39.3199 7.72601 39.3199 8.01601 39.3199C13.642 39.3199 19.268 39.3199 24.894 39.3199Z" fill="black"/>
<path d="M24.778 51.3259C30.462 51.3259 36.146 51.3259 41.888 51.3259C42.12 51.3259 42.352 51.3259 42.584 51.3259C43.164 51.3839 43.454 51.7319 43.512 52.3119C43.57 52.9499 43.222 53.2979 42.642 53.4139C42.41 53.4719 42.12 53.4139 41.888 53.4139C30.52 53.4139 19.094 53.4139 7.72599 53.4139C6.62399 53.4139 6.10199 53.0659 6.10199 52.3119C6.10199 51.6159 6.62399 51.2679 7.72599 51.2679C13.41 51.3259 19.094 51.3259 24.778 51.3259Z" fill="black"/>
<path d="M31.216 63.506C27.562 63.506 23.966 63.506 20.312 63.506C20.08 63.506 19.79 63.506 19.558 63.39C19.094 63.216 18.804 62.752 18.978 62.346C19.094 61.998 19.5 61.708 19.79 61.418C19.906 61.302 20.196 61.36 20.428 61.36C27.678 61.36 34.87 61.36 42.12 61.36C42.236 61.36 42.41 61.36 42.526 61.36C43.164 61.418 43.57 61.882 43.57 62.462C43.57 63.042 43.164 63.448 42.526 63.448C40.554 63.448 38.64 63.448 36.668 63.448C34.812 63.506 33.014 63.506 31.216 63.506Z" fill="black"/>
<path d="M37.828 18.788C36.378 18.788 34.928 18.788 33.478 18.788C32.608 18.788 32.144 18.382 32.144 17.686C32.144 16.99 32.608 16.584 33.478 16.584C36.378 16.584 39.336 16.584 42.236 16.584C43.164 16.584 43.57 16.99 43.57 17.686C43.57 18.382 43.106 18.788 42.236 18.788C40.728 18.788 39.278 18.788 37.828 18.788Z" fill="black"/>
<path d="M37.828 29.054C39.278 29.054 40.728 29.054 42.178 29.054C43.048 29.054 43.512 29.46 43.512 30.156C43.512 30.852 43.048 31.258 42.178 31.258C39.278 31.258 36.32 31.258 33.42 31.258C32.492 31.258 32.086 30.852 32.086 30.156C32.086 29.46 32.55 29.054 33.42 29.054C34.87 29.054 36.378 29.054 37.828 29.054Z" fill="black"/>
<path d="M37.828 24.7619C36.32 24.7619 34.812 24.7619 33.304 24.7619C32.492 24.7619 32.086 24.3559 32.086 23.7179C32.086 23.0799 32.55 22.674 33.304 22.674C36.32 22.674 39.336 22.674 42.352 22.674C43.106 22.674 43.57 23.0799 43.57 23.7179C43.57 24.3559 43.106 24.7619 42.352 24.7619C40.844 24.7619 39.336 24.7619 37.828 24.7619Z" fill="black"/>
<path d="M14.802 23.834C12.366 21.514 12.83 18.324 14.57 16.642C16.426 14.786 19.442 14.786 21.356 16.584C23.038 18.208 23.734 21.34 21.124 23.834C22.226 24.704 22.98 25.864 23.096 27.256C23.212 28.3 23.154 29.344 23.154 30.388C23.154 30.968 22.748 31.316 22.11 31.316C21.008 31.316 19.906 31.316 18.804 31.316C18.166 31.316 17.702 30.794 17.702 30.214C17.702 29.634 18.108 29.228 18.746 29.17C19.442 29.17 20.196 29.17 20.892 29.17C21.472 26.734 19.964 24.762 17.644 24.936C16.252 25.052 15.034 26.212 14.918 27.604C14.86 28.416 14.918 29.228 14.86 29.982C14.86 30.794 14.396 31.258 13.758 31.258C13.12 31.258 12.714 30.794 12.714 29.982C12.714 29.228 12.714 28.532 12.714 27.778C12.888 26.328 13.236 25.574 14.802 23.834ZM17.992 22.848C19.5 22.848 20.66 21.688 20.66 20.18C20.66 18.672 19.5 17.454 17.992 17.454C16.484 17.454 15.266 18.73 15.266 20.18C15.266 21.63 16.484 22.848 17.992 22.848Z" fill="black"/>
</svg>
