<svg width="84" height="74" viewBox="0 0 84 74" fill="none" xmlns="http://www.w3.org/2000/svg">
<path d="M0.356018 40.118C4.70602 32.346 9.05602 24.574 13.464 16.802C14.566 14.888 16.828 14.25 18.8 15.236C20.366 16.048 21.874 16.86 23.324 17.73C25.122 18.774 25.702 20.572 25.006 23.008C26.282 23.414 27.558 23.762 28.834 24.11C28.95 24.168 29.124 24.052 29.24 23.936C30.98 22.428 33.126 22.08 35.272 21.906C37.94 21.616 40.666 21.442 43.334 21.21C44.842 21.036 46.234 21.384 47.626 21.848C49.598 22.544 51.512 23.24 53.542 23.878C54.122 24.052 54.876 24.11 55.514 23.994C56.616 23.762 57.718 23.414 58.646 23.124C58.646 22.138 58.53 21.21 58.646 20.34C58.82 19.18 59.516 18.31 60.502 17.73C61.952 16.918 63.402 16.106 64.91 15.294C66.998 14.192 69.26 14.83 70.478 16.86C71.29 18.252 72.102 19.702 72.914 21.152C73.436 22.138 73.204 23.066 72.392 23.53C71.522 23.994 70.652 23.704 70.072 22.718C69.318 21.384 68.564 20.05 67.81 18.716C67.404 17.962 67.056 17.904 66.302 18.31C65.142 18.948 63.924 19.644 62.764 20.282C61.662 20.92 61.604 21.036 62.242 22.196C65.78 28.46 69.318 34.782 72.914 41.046C73.378 41.858 73.842 42.67 74.306 43.54C74.77 44.294 75.06 44.41 75.814 44.004C77.09 43.308 78.366 42.612 79.642 41.916C80.28 41.568 80.454 41.104 80.048 40.466C79.178 39.016 78.366 37.508 77.554 36C76.974 34.898 77.148 33.97 78.018 33.448C78.888 32.984 79.758 33.332 80.396 34.318C81.266 35.826 82.136 37.392 83.006 38.9C84.224 41.104 83.528 43.424 81.382 44.642C80.164 45.338 78.888 46.034 77.612 46.73C75.118 48.122 72.914 47.542 71.464 45.048C71.406 44.932 71.29 44.758 71.116 44.468C70.246 45.164 69.376 45.802 68.564 46.498C68.448 46.614 68.39 47.078 68.506 47.252C70.768 50.442 69.086 55.14 64.91 55.836C64.852 55.836 64.794 55.894 64.794 55.894C64.446 59.548 63.344 60.882 59.98 61.868C59.574 66.392 57.718 67.9 52.73 67.668C52.034 70.046 50.526 71.554 47.974 71.902C45.422 72.25 43.798 70.684 42.058 69.292C40.55 70.51 39.1 71.728 37.592 72.83C34.518 75.034 30.226 73.584 29.182 69.93C29.008 69.292 28.95 68.596 28.834 67.9C25.76 67.146 24.136 65.232 24.136 61.926C21.004 61.23 19.38 59.258 19.322 55.952C19.148 55.894 18.974 55.836 18.742 55.778C14.972 54.734 13.406 50.732 15.494 47.426C15.784 46.962 15.726 46.672 15.378 46.382C14.624 45.744 13.812 45.164 12.942 44.526C12.652 44.932 12.478 45.222 12.304 45.512C11.144 47.368 8.94002 48.006 6.96802 47.02C5.40202 46.208 3.89402 45.338 2.32802 44.468C1.28402 43.888 0.820017 42.902 0.414017 41.858C0.356017 41.336 0.356018 40.756 0.356018 40.118ZM40.086 60.824C41.594 61.636 42.812 62.796 42.928 64.478C43.044 66.044 43.856 66.914 45.016 67.726C45.248 67.9 45.422 68.074 45.654 68.248C46.756 69.06 48.09 68.944 48.844 68.016C49.656 67.03 49.482 65.754 48.438 64.826C47.8 64.304 47.162 63.782 46.466 63.26C45.538 62.506 45.306 61.52 45.886 60.766C46.524 59.954 47.51 59.954 48.438 60.708C49.83 61.81 51.164 62.912 52.556 64.014C53.774 65 55.108 65 55.92 63.956C56.79 62.912 56.558 61.636 55.34 60.65C53.948 59.548 52.556 58.446 51.164 57.286C50.178 56.474 50.004 55.546 50.7 54.792C51.338 54.038 52.266 54.038 53.194 54.734C54.644 55.836 56.036 56.996 57.428 58.098C58.588 59.026 59.922 58.968 60.734 57.924C61.546 56.938 61.256 55.546 60.154 54.676C58.82 53.632 57.486 52.588 56.21 51.486C55.862 51.196 55.572 50.732 55.456 50.326C55.282 49.688 55.572 49.108 56.21 48.76C56.906 48.354 57.544 48.412 58.182 48.934C59.574 50.036 60.966 51.196 62.358 52.298C63.75 53.342 65.606 52.762 65.954 51.138C66.186 50.094 65.664 49.34 64.852 48.702C61.72 46.266 58.704 43.772 55.572 41.336C52.788 39.248 50.004 37.218 47.162 35.304C45.248 34.028 43.044 33.564 40.724 33.912C39.216 34.144 37.708 34.434 36.2 34.376C31.792 34.318 28.718 31.882 27.964 27.938C27.906 27.764 27.79 27.532 27.616 27.474C26.108 27.01 24.658 26.604 23.15 26.14C20.134 31.418 17.234 36.638 14.334 41.742C15.668 42.786 16.944 43.772 18.278 44.816C19.612 43.714 21.062 42.554 22.512 41.452C25.586 39.132 29.762 40.408 31.096 44.004C31.154 44.178 31.212 44.352 31.328 44.468C33.59 43.772 35.678 44.062 37.302 45.744C39.332 47.89 39.332 50.268 37.94 52.704C41.188 54.792 41.826 57.344 40.086 60.824ZM60.56 26.024C59.11 26.43 57.718 26.836 56.384 27.184C55.05 27.532 53.774 27.532 52.498 27.01C51.338 26.546 50.12 26.14 48.902 25.734C47.046 25.154 45.306 24.284 43.276 24.458C40.666 24.748 38.056 24.864 35.446 25.212C34.344 25.328 33.242 25.618 32.198 25.966C31.27 26.256 31.096 26.72 31.386 27.648C31.85 29.214 32.894 30.316 34.518 30.606C35.794 30.838 37.186 30.838 38.462 30.722C40.318 30.49 42.174 30.2 44.03 30.432C46.524 30.78 48.728 31.94 50.7 33.39C54.47 36.174 58.24 39.016 62.01 41.858C63.228 42.786 64.388 43.772 65.49 44.584C66.882 43.54 68.1 42.554 69.434 41.51C66.476 36.522 63.576 31.302 60.56 26.024ZM8.82402 44.294C9.05602 44.062 9.40402 43.888 9.57802 43.598C10.274 42.438 10.97 41.22 11.608 40.002C14.972 34.086 18.336 28.112 21.7 22.138C22.28 21.094 22.222 20.92 21.178 20.282C19.96 19.644 18.742 18.948 17.582 18.31C17.002 17.962 16.538 18.078 16.19 18.716C12.072 25.966 8.01202 33.216 3.89402 40.466C3.48802 41.162 3.66202 41.568 4.30002 41.916C5.57602 42.612 6.85202 43.308 8.12802 44.004C8.24402 44.12 8.47602 44.178 8.82402 44.294ZM35.794 49.63C35.62 48.586 35.214 47.948 34.402 47.542C33.532 47.078 32.72 47.252 31.966 47.832C29.066 50.094 26.224 52.414 23.324 54.734C22.338 55.546 22.164 56.938 22.918 57.866C23.672 58.852 25.006 59.026 26.108 58.156C29.008 55.894 31.908 53.574 34.692 51.254C35.214 50.848 35.446 50.152 35.794 49.63ZM37.94 57.75C37.766 56.764 37.36 56.068 36.606 55.662C35.736 55.198 34.924 55.372 34.17 55.952C32.198 57.518 30.168 59.084 28.196 60.708C27.152 61.578 26.978 62.796 27.732 63.782C28.486 64.768 29.82 64.942 30.922 64.13C32.952 62.564 34.982 60.94 36.896 59.316C37.36 58.968 37.592 58.272 37.94 57.75ZM19.96 52.82C20.424 52.588 20.946 52.414 21.352 52.124C21.874 51.834 22.28 51.37 22.744 51.022C24.31 49.804 25.818 48.586 27.326 47.31C28.08 46.672 28.254 45.802 27.964 44.874C27.674 44.004 26.978 43.482 26.05 43.482C25.586 43.482 25.006 43.598 24.6 43.888C22.454 45.512 20.366 47.194 18.336 48.876C17.582 49.514 17.408 50.442 17.756 51.312C18.22 52.182 18.974 52.646 19.96 52.82ZM40.028 65.928C39.854 64.942 39.506 64.304 38.752 63.898C37.998 63.492 37.186 63.492 36.49 64.014C35.33 64.884 34.112 65.812 33.01 66.798C32.024 67.61 31.908 69.002 32.604 69.93C33.358 70.858 34.692 71.032 35.736 70.22C36.838 69.35 37.998 68.538 39.042 67.552C39.448 67.088 39.68 66.45 40.028 65.928Z" fill="black"/>
<path d="M43.566 6.59395C43.566 7.92795 43.566 9.26195 43.566 10.5959C43.566 11.6399 42.928 12.3359 41.942 12.3359C41.014 12.3359 40.318 11.6399 40.318 10.5959C40.318 7.92795 40.318 5.25994 40.318 2.53395C40.318 1.48995 40.956 0.793945 41.942 0.793945C42.928 0.793945 43.566 1.48995 43.566 2.53395C43.566 3.92595 43.566 5.25995 43.566 6.59395Z" fill="black"/>
<path d="M26.862 5.49194C27.268 5.78194 27.848 6.01394 28.138 6.41994C29.588 8.62394 31.038 10.8859 32.43 13.2059C32.952 14.0759 32.72 15.0619 31.908 15.5259C31.154 15.9899 30.226 15.7579 29.646 14.9459C28.196 12.6839 26.746 10.4219 25.354 8.15994C24.716 6.99994 25.412 5.66594 26.862 5.49194Z" fill="black"/>
<path d="M52.788 16.048C52.266 15.642 51.744 15.41 51.396 15.004C50.99 14.424 51.106 13.786 51.454 13.206C52.498 11.524 53.542 9.89997 54.586 8.21797C54.934 7.63797 55.282 7.05797 55.688 6.53597C56.268 5.72397 57.196 5.49197 57.95 5.95597C58.704 6.41997 58.936 7.40597 58.472 8.21797C57.08 10.538 55.63 12.8 54.122 15.062C53.832 15.41 53.31 15.642 52.788 16.048Z" fill="black"/>
<path d="M75.176 26.8939C76.046 26.8939 76.858 27.6479 76.8 28.5179C76.8 29.3879 75.988 30.1999 75.118 30.1419C74.248 30.1419 73.552 29.3879 73.494 28.5179C73.494 27.6479 74.248 26.8939 75.176 26.8939Z" fill="black"/>
</svg>
