<svg width="68" height="69" viewBox="0 0 68 69" fill="none" xmlns="http://www.w3.org/2000/svg">
<path d="M38.582 46.268C38.582 46.036 38.582 45.804 38.582 45.514C38.582 39.018 38.582 32.522 38.582 26.026C38.582 23.764 39.684 22.14 41.598 21.444C43.512 20.748 45.368 21.386 46.818 23.126C46.934 23.3 47.224 23.416 47.456 23.416C48.558 23.474 49.602 23.416 50.704 23.416C51.69 23.416 52.096 22.952 52.096 21.966C52.096 18.37 52.096 14.774 52.096 11.178C52.096 10.308 52.618 9.78603 53.372 9.90203C54.01 10.018 54.358 10.366 54.358 11.004C54.358 14.89 54.416 18.718 54.358 22.604C54.358 24.228 52.792 25.62 51.11 25.62C49.95 25.62 48.848 25.62 47.63 25.62C47.63 29.564 47.63 33.45 47.63 37.394C50.066 36.35 52.096 36.872 53.72 39.018C54.938 38.09 56.33 37.742 57.78 38.206C59.23 38.612 60.216 39.598 60.854 40.99C62.304 40.178 63.754 40.004 65.262 40.7C66.944 41.512 67.814 42.846 67.872 44.702C67.872 50.734 67.872 56.824 67.872 62.856C67.872 65.93 65.378 68.366 62.304 68.366C58.65 68.366 54.938 68.366 51.284 68.366C50.356 68.366 49.892 67.96 49.892 67.264C49.892 66.51 50.356 66.162 51.284 66.162C54.822 66.162 58.302 66.162 61.84 66.162C64.276 66.162 65.668 64.77 65.668 62.334C65.668 56.592 65.668 50.85 65.668 45.108C65.668 44.006 65.262 43.194 64.276 42.73C62.826 42.092 61.376 43.078 61.202 44.76C61.086 45.688 60.216 46.268 59.52 45.746C59.23 45.514 58.998 45.108 58.94 44.702C58.824 44.006 58.94 43.31 58.882 42.614C58.824 41.338 57.896 40.352 56.678 40.294C55.518 40.236 54.532 41.164 54.358 42.44C54.242 43.31 53.836 43.716 53.14 43.716C52.444 43.658 52.096 43.194 52.096 42.324C52.096 42.034 52.096 41.686 52.096 41.396C52.038 40.178 51.11 39.25 49.95 39.192C48.848 39.134 47.804 40.004 47.63 41.222C47.63 41.338 47.63 41.512 47.572 41.628C47.456 42.208 47.05 42.556 46.412 42.556C45.832 42.556 45.368 42.15 45.31 41.57C45.31 41.338 45.31 41.164 45.31 40.932C45.31 36.002 45.31 31.014 45.31 26.084C45.31 25.562 45.194 24.982 44.962 24.518C44.556 23.648 43.512 23.242 42.642 23.474C41.598 23.706 40.902 24.518 40.844 25.562C40.844 25.794 40.844 26.026 40.844 26.258C40.844 34.494 40.844 42.672 40.844 50.908C40.844 51.082 40.844 51.256 40.844 51.372C40.902 52.01 40.612 52.474 40.032 52.648C39.336 52.822 38.93 52.474 38.64 51.894C37.364 49.226 36.146 46.616 34.87 44.006C34.638 43.542 34.406 43.136 34.116 42.73C33.304 41.686 32.26 41.396 30.984 41.744C30.52 41.86 30.404 42.092 30.52 42.556C31.39 45.862 32.26 49.11 33.072 52.416C34.116 56.534 36.204 60.13 38.698 63.552C39.162 64.19 39.916 64.654 40.496 65.234C41.018 65.756 41.54 66.22 41.946 66.858C42.294 67.438 42.062 68.076 41.482 68.366C40.96 68.656 40.38 68.482 39.974 67.902C39.8 67.67 39.684 67.438 39.51 67.322C37.364 65.93 36.03 63.9 34.812 61.754C33.768 59.898 32.666 57.984 31.912 56.012C31.158 54.098 30.752 52.01 30.23 50.038C29.534 47.37 28.838 44.76 28.2 42.092C27.968 41.106 28.084 40.758 29.012 40.294C32.26 38.554 35.218 39.482 36.9 42.73C37.538 43.948 38.06 45.166 38.64 46.384C38.466 46.268 38.524 46.268 38.582 46.268Z" fill="black"/>
<path d="M12.714 0.911987C15.672 0.911987 18.63 0.911987 21.588 0.911987C23.676 0.911987 25.068 2.36199 25.068 4.39199C25.068 10.308 25.068 16.282 25.068 22.198C25.068 24.228 23.618 25.678 21.646 25.678C15.672 25.678 9.756 25.678 3.782 25.678C1.752 25.678 0.360001 24.228 0.360001 22.198C0.360001 16.224 0.360001 10.308 0.360001 4.33399C0.360001 2.36199 1.81 0.911987 3.782 0.911987C6.74 0.911987 9.698 0.911987 12.714 0.911987ZM2.564 13.324C2.564 16.224 2.564 19.066 2.564 21.966C2.564 23.068 2.97 23.416 4.072 23.416C9.814 23.416 15.556 23.416 21.298 23.416C22.458 23.416 22.806 23.01 22.806 21.908C22.806 16.166 22.806 10.424 22.806 4.68199C22.806 3.57999 22.4 3.17399 21.298 3.17399C15.556 3.17399 9.872 3.17399 4.13 3.17399C2.97 3.17399 2.564 3.57999 2.564 4.73999C2.564 7.58199 2.564 10.424 2.564 13.324Z" fill="black"/>
<path d="M12.598 54.968C9.64 54.968 6.74 54.968 3.782 54.968C1.694 54.968 0.244003 53.518 0.244003 51.43C0.244003 45.514 0.244003 39.598 0.244003 33.682C0.244003 31.594 1.694 30.202 3.724 30.202C9.64 30.202 15.614 30.202 21.53 30.202C23.618 30.202 25.01 31.652 25.01 33.682C25.01 39.598 25.01 45.572 25.01 51.488C25.01 53.518 23.56 54.968 21.588 54.968C18.63 54.968 15.614 54.968 12.598 54.968ZM22.806 42.614C22.806 39.714 22.806 36.814 22.806 33.914C22.806 32.812 22.4 32.464 21.298 32.464C15.556 32.464 9.814 32.464 4.072 32.464C2.912 32.464 2.564 32.87 2.564 33.972C2.564 39.714 2.564 45.456 2.564 51.198C2.564 52.3 2.97 52.706 4.072 52.706C9.814 52.706 15.498 52.706 21.24 52.706C22.4 52.706 22.806 52.3 22.806 51.14C22.806 48.298 22.806 45.456 22.806 42.614Z" fill="black"/>
<path d="M29.592 13.324C29.592 10.366 29.592 7.34997 29.592 4.39197C29.592 2.36197 31.042 0.969971 33.072 0.969971C38.93 0.969971 44.846 0.969971 50.704 0.969971C51.632 0.969971 52.154 1.43397 52.096 2.24597C52.038 2.88397 51.574 3.23197 50.762 3.23197C48.268 3.23197 45.716 3.23197 43.222 3.23197C39.916 3.23197 36.668 3.23197 33.362 3.23197C32.202 3.23197 31.796 3.63797 31.796 4.79797C31.796 10.54 31.796 16.224 31.796 21.966C31.796 23.126 32.202 23.532 33.362 23.532C34 23.532 34.58 23.532 35.218 23.532C35.856 23.532 36.32 23.996 36.32 24.634C36.32 25.272 35.856 25.736 35.218 25.736C34.348 25.736 33.478 25.794 32.608 25.736C30.926 25.62 29.592 24.17 29.592 22.43C29.592 19.356 29.592 16.34 29.592 13.324Z" fill="black"/>
<path d="M41.946 15.18C42.468 14.6 42.874 14.136 43.28 13.73C46.934 10.076 50.588 6.42197 54.3 2.70997C54.474 2.53597 54.59 2.41997 54.764 2.30397C55.286 1.95597 55.75 1.95597 56.214 2.36197C56.678 2.76797 56.678 3.40597 56.33 3.86997C56.214 4.04397 56.04 4.15997 55.924 4.33397C51.69 8.56797 47.398 12.86 43.164 17.094C42.236 18.022 41.772 18.022 40.844 17.094C39.162 15.412 37.422 13.672 35.74 11.99C35.044 11.294 35.16 10.308 36.03 10.018C36.61 9.84397 37.016 10.076 37.422 10.482C38.756 11.874 40.148 13.208 41.482 14.542C41.54 14.658 41.714 14.89 41.946 15.18Z" fill="black"/>
</svg>
