<svg width="71" height="71" viewBox="0 0 71 71" fill="none" xmlns="http://www.w3.org/2000/svg">
<path d="M3.67962 12.8759L14.8484 1.70711C15.239 1.31658 15.8721 1.31658 16.2627 1.70711L30.404 15.8484C30.7945 16.239 30.7945 16.8721 30.404 17.2627L23.843 23.8237C23.5386 24.128 23.4632 24.593 23.6557 24.978L27.6825 33.0316C29.908 37.4827 33.5173 41.092 37.9684 43.3175L46.022 47.3443C46.407 47.5368 46.872 47.4614 47.1763 47.157L53.7373 40.596C54.1279 40.2055 54.761 40.2055 55.1516 40.596L69.2929 54.7373C69.6834 55.1279 69.6834 55.761 69.2929 56.1516L58.1241 67.3204C56.0127 69.4317 52.6702 69.6693 50.2814 67.8777L25.9619 49.6381C24.2184 48.3304 22.6696 46.7816 21.3619 45.0381L3.12226 20.7186C1.33072 18.3299 1.56827 14.9873 3.67962 12.8759Z" stroke="white" stroke-width="2"/>
</svg>
