<?xml version="1.0" encoding="utf-8"?>
<!-- Generator: Adobe Illustrator 17.0.0, SVG Export Plug-In . SVG Version: 6.00 Build 0)  -->
<!DOCTYPE svg PUBLIC "-//W3C//DTD SVG 1.1//EN" "http://www.w3.org/Graphics/SVG/1.1/DTD/svg11.dtd">
<svg version="1.1" id="Layer_1" xmlns="http://www.w3.org/2000/svg" xmlns:xlink="http://www.w3.org/1999/xlink" x="0px" y="0px"
	 width="289.265px" height="77.953px" viewBox="0 0 289.265 77.953" enable-background="new 0 0 289.265 77.953"
	 xml:space="preserve">
<g>
	<g>
		<g>
			<g>
				<path fill="#037162" d="M174.428,46.98c-2.014-1.892-4.655-2.85-7.849-2.85c-3.195,0-5.836,0.959-7.848,2.85
					c-2.02,1.896-3.044,4.413-3.044,7.479c0,3.066,1.024,5.583,3.044,7.48c2.014,1.891,4.655,2.851,7.849,2.851
					c3.193,0,5.834-0.959,7.85-2.851c2.02-1.898,3.044-4.415,3.044-7.48C177.472,51.393,176.448,48.877,174.428,46.98L174.428,46.98
					z M174.653,54.459c0,2.644-0.75,4.802-2.23,6.413c-1.472,1.603-3.443,2.416-5.857,2.416c-2.415,0-4.385-0.813-5.857-2.416
					c-1.48-1.611-2.23-3.768-2.23-6.413c0-2.644,0.75-4.801,2.23-6.412c1.471-1.603,3.442-2.415,5.857-2.415
					c2.414,0,4.385,0.813,5.857,2.415C173.902,49.658,174.653,51.816,174.653,54.459z"/>
			</g>
			<g>
				<path fill="#037162" d="M147.29,43.214c-1.736-0.92-3.763-1.42-6.028-1.485c-1.651-0.034-2.445-0.059-2.971-0.076
					c-0.413-0.012-0.626-0.019-0.969-0.019c-3.658,0-6.255,0.349-7.717,1.038c-1.504,0.707-2.589,2.011-3.225,3.874l-0.107,0.315
					l0.929,0.338l0.142-0.253c0.298-0.539,0.594-0.994,0.878-1.351c0.273-0.339,0.683-0.703,1.218-1.08
					c1.029-0.712,2.837-1.104,5.369-1.165h6.446c1.689,0,3.199,0.406,4.488,1.206c1.289,0.798,2.304,1.941,3.017,3.395
					c0.717,1.466,1.081,3.188,1.081,5.115c0,2.917-0.801,5.294-2.381,7.065c-1.57,1.759-3.658,2.651-6.205,2.651h-5.851V44.857
					h-2.721l0.003,17.061c-0.052,0.418-0.238,0.776-0.552,1.065c-0.311,0.285-0.689,0.429-1.122,0.429h-0.685l-0.098,0.993h11.027
					c3.428,0,6.251-1.052,8.391-3.128c2.144-2.079,3.23-4.841,3.23-8.21c0-2.228-0.496-4.215-1.476-5.905
					C150.419,45.47,149.036,44.142,147.29,43.214z"/>
			</g>
			<g>
				<path fill="#037162" d="M193.346,45.466h0.861c0.363,0,0.681,0.13,0.944,0.385c0.266,0.259,0.404,0.573,0.418,0.95v12.755
					l-14.372-15.348l-0.101-0.106h-0.805l0.103,0.827c0.126,0.863,0.189,1.853,0.189,2.943v14.245c0,0.389-0.124,0.691-0.392,0.951
					c-0.269,0.262-0.569,0.384-0.944,0.384h-0.86v0.953h6.333v-0.953h-0.861c-0.375,0-0.675-0.122-0.944-0.385
					c-0.266-0.259-0.391-0.552-0.391-0.923v-12.81l14.373,15.348l0.101,0.106h0.772l-0.098-0.878
					c-0.125-0.931-0.189-1.932-0.189-2.975V46.788c0.015-0.376,0.148-0.673,0.419-0.937c0.263-0.255,0.58-0.385,0.943-0.385h0.834
					v-0.953h-6.333V45.466z"/>
			</g>
			<g>
				<path fill="#037162" d="M253.735,68.869l-0.366,0.073c-0.399,0.079-0.858,0.119-1.364,0.119c-0.492,0-1.136-0.141-1.913-0.42
					c-0.767-0.276-1.52-0.764-2.236-1.45c-0.729-0.698-1.552-1.766-2.447-3.174c-0.893-1.404-1.785-2.539-2.653-4.935l-3.834-10.873
					c-0.779-2.21-1.434-3.765-1.949-4.623c-0.774-1.247-1.493-2.105-2.136-2.55c-1.165-0.812-2.319-1.224-3.431-1.224
					c-1.297,0-2.663,0.294-4.058,0.875l-0.284,0.117l0.285,0.954l0.339-0.125c2.546-0.932,4.595-0.404,6.128,1.674l-7.708,18.467
					c-0.284,0.55-0.646,0.966-1.073,1.235c-0.425,0.268-0.861,0.404-1.296,0.404h-0.622v0.993h6.995v-0.993h-0.59
					c-0.359,0-0.598-0.093-0.753-0.294c-0.172-0.22-0.259-0.419-0.259-0.592c0-0.206,0.044-0.417,0.134-0.631l6.374-16.417
					c0.301,0.689,0.626,1.542,0.971,2.544l2.331,6.874h-4.966l-0.624,1.621h6.134l1.147,3.352c1.269,3.762,2.839,5.814,4.664,7.659
					c0.861,0.905,1.801,1.621,2.794,2.127c1.007,0.515,2.031,0.776,3.045,0.776c0.995,0,2.024-0.175,3.062-0.521l0.257-0.086
					L253.735,68.869z"/>
			</g>
			<g>
				<path fill="#037162" d="M214.812,55.485h0.779c0.354,0,0.627,0.079,0.809,0.234c0.171,0.147,0.251,0.357,0.251,0.662v4.708
					c-0.744,0.67-1.618,1.205-2.598,1.591c-1.025,0.403-2.124,0.607-3.263,0.607c-2.211-0.018-4.023-0.832-5.385-2.42
					c-1.376-1.603-2.073-3.759-2.073-6.408c0-2.649,0.698-4.809,2.074-6.422c1.361-1.597,3.172-2.406,5.381-2.406
					c1.732,0,3.196,0.409,4.348,1.215c1.143,0.799,1.914,1.957,2.294,3.441l0.064,0.256h0.902l-0.626-4.41l-0.13-0.084
					c-1.968-1.275-4.274-1.921-6.854-1.921c-3.008,0-5.485,0.962-7.364,2.86c-1.877,1.895-2.829,4.408-2.829,7.47
					c0,3.062,0.952,5.572,2.83,7.458c1.876,1.887,4.353,2.854,7.363,2.872c1.329,0,2.581-0.195,3.718-0.581
					c1.134-0.384,2.057-0.839,2.742-1.353c0.679-0.508,1.275-1.094,1.792-1.77l0.047-0.061l-0.001-4.659
					c-0.013-0.301,0.055-0.508,0.215-0.65c0.173-0.153,0.448-0.23,0.818-0.23h0.751v-0.953h-6.058V55.485z"/>
			</g>
			<g>
				<polygon fill="#037162" points="164.039,42.643 163.296,42.643 165.99,38.994 167.168,38.994 169.862,42.643 169.12,42.643 
					166.606,40.331 				"/>
				<path fill="#037162" d="M170.13,42.778h-1.063l-2.462-2.265l-2.514,2.265h-1.062l2.894-3.919h1.314l0.04,0.055L170.13,42.778z
					 M169.172,42.508h0.422l-2.495-3.379h-1.041l-2.495,3.379h0.423l2.62-2.36L169.172,42.508z"/>
			</g>
			<g>
				<polygon fill="#037162" points="241.961,36.54 240.493,37.876 237.926,40.189 237.183,40.189 239.878,36.54 241.055,36.54 				
					"/>
				<path fill="#037162" d="M237.978,40.324h-1.062l2.893-3.919h2.5l-1.725,1.572L237.978,40.324z M237.451,40.054h0.423
					l3.738-3.379h-1.666L237.451,40.054z"/>
			</g>
			<g>
				<polygon fill="#037162" points="138.468,54.465 128.618,54.465 129.436,52.818 139.286,52.818 				"/>
			</g>
		</g>
		<g>
			<path fill="#037162" d="M90.839,28.482V15.559h4.884c1.085,0,1.946,0.197,2.581,0.592c0.783,0.493,1.175,1.258,1.175,2.294
				c0,0.845-0.312,1.545-0.934,2.1c-0.555,0.493-1.28,0.802-2.174,0.925v0.157c0.907,0.099,1.644,0.342,2.211,0.731
				c0.796,0.561,1.193,1.366,1.193,2.414c0,1.221-0.478,2.168-1.434,2.84c-0.833,0.58-1.881,0.869-3.145,0.869H90.839z
				 M93.679,16.66v4.468l0.49,0.037c0.333,0,0.635-0.034,0.907-0.102c0.271-0.068,0.527-0.197,0.768-0.389
				c0.29-0.24,0.501-0.53,0.634-0.869c0.133-0.339,0.199-0.706,0.199-1.101c0-0.666-0.18-1.186-0.541-1.559
				c-0.361-0.373-0.865-0.56-1.512-0.56c-0.136,0-0.294,0.009-0.476,0.028C93.964,16.632,93.809,16.648,93.679,16.66z
				 M93.679,22.229v5.152h0.943c0.561,0,1.061-0.213,1.499-0.638c0.493-0.481,0.74-1.101,0.74-1.859c0-0.925-0.227-1.599-0.68-2.021
				c-0.453-0.422-1.124-0.634-2.012-0.634H93.679z"/>
			<path fill="#037162" d="M102.55,15.559h8.714c-0.025,0.142-0.049,0.307-0.074,0.495c-0.025,0.188-0.037,0.301-0.037,0.338
				c0.037,0.265,0.074,0.53,0.111,0.796c-0.647-0.062-1.454-0.12-2.419-0.176c-0.965-0.056-1.888-0.083-2.77-0.083h-0.685v4.089
				h3.034c0.592,0,1.039-0.009,1.341-0.028c0.302-0.019,0.777-0.071,1.425-0.157c-0.055,0.278-0.108,0.555-0.157,0.832
				c0,0.099,0.015,0.224,0.046,0.375c0.031,0.151,0.068,0.291,0.111,0.421c-0.333-0.025-0.789-0.057-1.369-0.097
				c-0.58-0.04-1.045-0.06-1.397-0.06h-3.034v4.819c1.098,0,2.174-0.026,3.228-0.079c1.055-0.052,1.936-0.116,2.646-0.19
				c-0.037,0.265-0.074,0.53-0.111,0.796c0,0.111,0.012,0.242,0.037,0.393c0.025,0.151,0.049,0.298,0.074,0.439h-8.714V15.559z
				 M106,11.203h1.776l2.313,3.339h-1.064l-2.118-1.896l-2.164,1.896h-1.018L106,11.203z M105.334,31.063
				c0-0.407,0.145-0.756,0.435-1.045c0.29-0.29,0.638-0.435,1.045-0.435c0.401,0,0.752,0.145,1.055,0.435
				c0.302,0.29,0.453,0.638,0.453,1.045c0,0.413-0.148,0.768-0.444,1.064c-0.296,0.296-0.651,0.444-1.064,0.444
				c-0.407,0-0.755-0.151-1.045-0.453C105.479,31.815,105.334,31.463,105.334,31.063z"/>
			<path fill="#037162" d="M114.409,28.556V15.559h1.896c2.726,2.954,5.454,5.911,8.186,8.871v-8.871
				c0.185,0.025,0.316,0.043,0.393,0.056c0.077,0.012,0.196,0.019,0.356,0.019l0.758-0.074v13.033l-1.628-0.037
				c-1.073-1.196-2.14-2.396-3.201-3.598c-0.907-1.011-1.961-2.161-3.164-3.45l-2.081-2.155v9.204
				c-0.191-0.025-0.324-0.043-0.398-0.056c-0.074-0.012-0.194-0.019-0.361-0.019L114.409,28.556z"/>
			<path fill="#037162" d="M129.413,28.593V15.559c0.167,0,0.407,0.02,0.721,0.06s0.555,0.06,0.721,0.06
				c0.148,0,0.381-0.02,0.698-0.06c0.318-0.04,0.55-0.06,0.698-0.06v5.152c0.345,0,0.906,0.014,1.683,0.042
				c0.777,0.028,1.19,0.042,1.24,0.042c0.314,0,0.86-0.014,1.637-0.042c0.777-0.028,1.19-0.042,1.24-0.042v-5.152
				c0.166,0,0.407,0.02,0.721,0.06s0.555,0.06,0.722,0.06c0.148,0,0.381-0.02,0.698-0.06c0.318-0.04,0.55-0.06,0.698-0.06v13.033
				c-0.148,0-0.381-0.018-0.698-0.056c-0.318-0.037-0.55-0.056-0.698-0.056c-0.167,0-0.407,0.019-0.722,0.056
				c-0.314,0.037-0.555,0.056-0.721,0.056v-6.364c-0.314,0-0.794-0.018-1.438-0.056c-0.644-0.037-1.124-0.056-1.438-0.056
				c-0.333,0-0.82,0.018-1.462,0.056s-1.128,0.056-1.461,0.056v6.364c-0.148,0-0.381-0.018-0.698-0.056
				c-0.318-0.037-0.55-0.056-0.698-0.056c-0.166,0-0.407,0.019-0.721,0.056C129.82,28.574,129.579,28.593,129.413,28.593z"/>
			<path fill="#037162" d="M155.257,28.593c-0.265-0.037-0.53-0.074-0.796-0.111c-0.13,0-0.27,0.012-0.421,0.037
				c-0.151,0.025-0.288,0.049-0.412,0.074c-0.419-1.159-0.957-2.601-1.614-4.324c-0.657-1.724-1.226-3.187-1.707-4.389
				c-0.376-0.956-0.962-2.396-1.758-4.32c0.277,0,0.536,0.012,0.777,0.037c0.24,0.025,0.536,0.052,0.888,0.083
				c0.191,0,0.476-0.02,0.856-0.06c0.379-0.04,0.649-0.06,0.809-0.06c0.395,1.289,0.931,2.855,1.609,4.699
				c0.586,1.566,1.175,3.133,1.767,4.699c0.641-1.554,1.266-3.133,1.873-4.736c0.607-1.603,1.158-3.157,1.651-4.662l0.87,0.074
				c0.154,0,0.316-0.009,0.486-0.028c0.17-0.018,0.298-0.034,0.384-0.046c-0.604,1.443-1.209,2.877-1.813,4.301
				c-0.734,1.745-1.329,3.185-1.785,4.32C156.33,25.661,155.775,27.131,155.257,28.593z"/>
			<path fill="#037162" d="M162.676,28.593V15.559c0.154,0,0.389,0.02,0.703,0.06s0.549,0.06,0.703,0.06
				c0.167,0,0.407-0.02,0.721-0.06s0.555-0.06,0.721-0.06v13.033c-0.167,0-0.407-0.018-0.721-0.056
				c-0.314-0.037-0.555-0.056-0.721-0.056c-0.154,0-0.389,0.019-0.703,0.056C163.065,28.574,162.83,28.593,162.676,28.593z"/>
			<path fill="#037162" d="M168.892,15.559h8.714c-0.025,0.142-0.049,0.307-0.074,0.495c-0.025,0.188-0.037,0.301-0.037,0.338
				c0.037,0.265,0.074,0.53,0.111,0.796c-0.647-0.062-1.454-0.12-2.419-0.176s-1.889-0.083-2.77-0.083h-0.684v4.089h3.034
				c0.592,0,1.039-0.009,1.341-0.028c0.302-0.019,0.777-0.071,1.424-0.157c-0.055,0.278-0.108,0.555-0.157,0.832
				c0,0.099,0.015,0.224,0.046,0.375c0.031,0.151,0.068,0.291,0.111,0.421c-0.333-0.025-0.789-0.057-1.369-0.097
				c-0.58-0.04-1.045-0.06-1.397-0.06h-3.034v4.819c1.098,0,2.174-0.026,3.228-0.079c1.054-0.052,1.936-0.116,2.645-0.19
				c-0.037,0.265-0.074,0.53-0.111,0.796c0,0.111,0.012,0.242,0.037,0.393c0.025,0.151,0.049,0.298,0.074,0.439h-8.714V15.559z
				 M172.343,11.203h1.776l2.313,3.339h-1.064l-2.118-1.896l-2.165,1.896h-1.018L172.343,11.203z M171.677,31.063
				c0-0.407,0.145-0.756,0.435-1.045c0.29-0.29,0.638-0.435,1.045-0.435c0.401,0,0.752,0.145,1.054,0.435
				c0.302,0.29,0.453,0.638,0.453,1.045c0,0.413-0.148,0.768-0.444,1.064c-0.296,0.296-0.651,0.444-1.064,0.444
				c-0.407,0-0.755-0.151-1.045-0.453C171.822,31.815,171.677,31.463,171.677,31.063z"/>
			<path fill="#037162" d="M180.751,28.556V15.559h1.896c2.726,2.954,5.454,5.911,8.186,8.871v-8.871
				c0.185,0.025,0.316,0.043,0.393,0.056c0.077,0.012,0.196,0.019,0.356,0.019l0.759-0.074v13.033l-1.628-0.037
				c-1.073-1.196-2.14-2.396-3.201-3.598c-0.907-1.011-1.961-2.161-3.164-3.45l-2.081-2.155v9.204
				c-0.191-0.025-0.324-0.043-0.398-0.056c-0.074-0.012-0.194-0.019-0.361-0.019L180.751,28.556z"/>
			<path fill="#037162" d="M206.328,16.928v11.664c-0.148,0-0.381-0.018-0.698-0.056c-0.318-0.037-0.55-0.056-0.698-0.056
				c-0.166,0-0.407,0.019-0.721,0.056c-0.315,0.037-0.555,0.056-0.722,0.056V16.928c-0.635,0-1.249,0.022-1.841,0.065
				c-0.592,0.043-1.153,0.108-1.684,0.194c0.025-0.16,0.049-0.327,0.074-0.5c0.025-0.173,0.037-0.284,0.037-0.333
				c0-0.111-0.012-0.236-0.037-0.375c-0.025-0.139-0.049-0.279-0.074-0.421h9.777c-0.037,0.265-0.077,0.53-0.12,0.796
				c0,0.129,0.014,0.27,0.042,0.421c0.028,0.151,0.054,0.288,0.079,0.412c-0.648-0.086-1.243-0.151-1.785-0.194
				C207.413,16.95,206.87,16.928,206.328,16.928z"/>
			<path fill="#037162" d="M211.933,28.593V15.559c0.167,0,0.407,0.02,0.722,0.06s0.555,0.06,0.721,0.06
				c0.148,0,0.381-0.02,0.698-0.06s0.55-0.06,0.698-0.06v5.152c0.345,0,0.906,0.014,1.683,0.042c0.777,0.028,1.19,0.042,1.24,0.042
				c0.314,0,0.86-0.014,1.637-0.042c0.777-0.028,1.19-0.042,1.239-0.042v-5.152c0.167,0,0.407,0.02,0.722,0.06
				c0.314,0.04,0.555,0.06,0.721,0.06c0.148,0,0.381-0.02,0.698-0.06s0.55-0.06,0.698-0.06v13.033c-0.148,0-0.381-0.018-0.698-0.056
				c-0.318-0.037-0.55-0.056-0.698-0.056c-0.166,0-0.407,0.019-0.721,0.056c-0.315,0.037-0.555,0.056-0.722,0.056v-6.364
				c-0.314,0-0.794-0.018-1.438-0.056c-0.644-0.037-1.124-0.056-1.438-0.056c-0.333,0-0.82,0.018-1.462,0.056
				c-0.641,0.037-1.128,0.056-1.461,0.056v6.364c-0.148,0-0.381-0.018-0.698-0.056c-0.318-0.037-0.55-0.056-0.698-0.056
				c-0.167,0-0.407,0.019-0.721,0.056C212.34,28.574,212.1,28.593,211.933,28.593z"/>
			<path fill="#037162" d="M233.079,24.615h-4.431c-0.253,0.722-0.432,1.233-0.536,1.536c-0.364,1.048-0.629,1.85-0.796,2.405
				c-0.111-0.012-0.239-0.028-0.384-0.046c-0.145-0.018-0.307-0.028-0.486-0.028c-0.154,0-0.319,0.009-0.495,0.028
				c-0.176,0.018-0.313,0.034-0.412,0.046l5.411-13.145c0.117,0.025,0.236,0.037,0.356,0.037c0.12,0,0.242,0,0.365,0h0.268
				c0.062,0,0.129,0,0.203,0c0.117-0.025,0.2-0.037,0.25-0.037l5.263,13.181c-0.253,0-0.447-0.006-0.583-0.018
				c-0.672-0.062-1.021-0.093-1.045-0.093c-0.253,0-0.447,0.006-0.583,0.019c-0.672,0.062-1.021,0.092-1.045,0.092
				C233.958,27.051,233.517,25.725,233.079,24.615z M230.693,11.203h1.776l2.313,3.339h-1.064l-2.118-1.896l-2.164,1.896h-1.018
				L230.693,11.203z M229.176,23.441h3.45l-1.674-4.394L229.176,23.441z M236.899,8.89l0.018,0.167l-0.018,0.398
				c0,0.253-0.182,0.549-0.546,0.888c-0.265,0.253-0.595,0.493-0.99,0.721c-0.24,0.117-0.41,0.244-0.509,0.379
				c-0.086,0.167-0.142,0.274-0.167,0.324l-0.083,0.324v0.259h-0.472v-0.768c0-0.179,0.29-0.623,0.87-1.332
				c0.284-0.339,0.426-0.694,0.426-1.064c0-0.148-0.051-0.336-0.153-0.564c-0.102-0.228-0.224-0.379-0.365-0.453
				c-0.148-0.117-0.376-0.176-0.684-0.176c-0.049,0-0.14,0.054-0.273,0.162c-0.133,0.108-0.217,0.18-0.254,0.217
				c0.154,0.117,0.265,0.22,0.333,0.31c0.068,0.089,0.102,0.202,0.102,0.338c0,0.228-0.097,0.427-0.291,0.597
				c-0.194,0.17-0.412,0.254-0.652,0.254c-0.228,0-0.418-0.082-0.569-0.245c-0.151-0.163-0.227-0.365-0.227-0.606l0.037-0.203
				c0.154-0.321,0.37-0.589,0.648-0.805c0.425-0.327,0.962-0.49,1.61-0.49c0.691,0,1.24,0.163,1.646,0.49
				C236.613,8.239,236.801,8.532,236.899,8.89z"/>
			<path fill="#037162" d="M246.529,24.467c0.463-0.925,0.934-1.847,1.415-2.766c0.722-1.406,1.221-2.393,1.499-2.96
				c0.493-0.993,0.987-2.054,1.48-3.182c0.265,0.037,0.53,0.077,0.796,0.12c0.111,0,0.242-0.014,0.393-0.042
				c0.151-0.028,0.298-0.054,0.439-0.079c0.179,1.603,0.365,3.258,0.56,4.963c0.194,1.705,0.367,3.13,0.518,4.274
				c0.151,1.144,0.347,2.41,0.587,3.797c-0.253,0-0.5-0.012-0.74-0.037c-0.24-0.025-0.524-0.049-0.851-0.074
				c-0.179,0-0.432,0.019-0.758,0.056c-0.327,0.037-0.58,0.056-0.758,0.056c0-1.233-0.094-2.653-0.282-4.26
				c-0.188-1.607-0.372-3.141-0.55-4.602c-0.469,0.956-0.941,1.921-1.415,2.895c-0.382,0.783-0.851,1.758-1.406,2.923
				c-0.592,1.258-1.054,2.235-1.387,2.932l-0.416-0.037l-0.296,0.037c-0.611-1.301-1.272-2.681-1.984-4.139
				c-0.712-1.458-1.429-2.921-2.151-4.389c-0.123,0.913-0.251,1.933-0.384,3.062c-0.133,1.128-0.234,2.148-0.305,3.057
				c-0.071,0.91-0.106,1.75-0.106,2.521c-0.302-0.037-0.604-0.074-0.907-0.111c-0.13,0-0.273,0.012-0.43,0.037
				c-0.157,0.025-0.304,0.049-0.439,0.074c0.241-1.313,0.46-2.646,0.657-3.996c0.117-0.758,0.321-2.166,0.611-4.223
				s0.512-3.661,0.666-4.815c0.265,0.037,0.53,0.077,0.796,0.12c0.265-0.043,0.53-0.083,0.796-0.12
				c0.555,1.227,1.014,2.22,1.378,2.979c0.419,0.882,0.906,1.872,1.462,2.969C245.517,22.494,246.023,23.481,246.529,24.467z"/>
			<path fill="#037162" d="M268.96,24.467c0.463-0.925,0.934-1.847,1.415-2.766c0.721-1.406,1.221-2.393,1.499-2.96
				c0.493-0.993,0.987-2.054,1.48-3.182c0.265,0.037,0.53,0.077,0.796,0.12c0.111,0,0.242-0.014,0.393-0.042
				c0.151-0.028,0.297-0.054,0.439-0.079c0.179,1.603,0.365,3.258,0.56,4.963c0.194,1.705,0.367,3.13,0.518,4.274
				c0.151,1.144,0.347,2.41,0.587,3.797c-0.253,0-0.5-0.012-0.74-0.037c-0.241-0.025-0.524-0.049-0.851-0.074
				c-0.179,0-0.432,0.019-0.759,0.056c-0.327,0.037-0.58,0.056-0.758,0.056c0-1.233-0.094-2.653-0.282-4.26
				c-0.188-1.607-0.372-3.141-0.55-4.602c-0.469,0.956-0.94,1.921-1.415,2.895c-0.382,0.783-0.851,1.758-1.406,2.923
				c-0.592,1.258-1.055,2.235-1.388,2.932l-0.416-0.037l-0.296,0.037c-0.611-1.301-1.272-2.681-1.984-4.139
				c-0.712-1.458-1.429-2.921-2.151-4.389c-0.123,0.913-0.251,1.933-0.384,3.062c-0.133,1.128-0.234,2.148-0.305,3.057
				c-0.071,0.91-0.106,1.75-0.106,2.521c-0.302-0.037-0.604-0.074-0.907-0.111c-0.129,0-0.273,0.012-0.43,0.037
				c-0.157,0.025-0.304,0.049-0.439,0.074c0.24-1.313,0.459-2.646,0.657-3.996c0.117-0.758,0.321-2.166,0.611-4.223
				c0.29-2.057,0.512-3.661,0.666-4.815c0.265,0.037,0.53,0.077,0.796,0.12c0.265-0.043,0.53-0.083,0.796-0.12
				c0.555,1.227,1.014,2.22,1.378,2.979c0.419,0.882,0.906,1.872,1.461,2.969C267.949,22.494,268.455,23.481,268.96,24.467z"/>
			<path fill="#037162" d="M285.056,22.719v5.874c-0.16,0-0.399-0.018-0.717-0.056c-0.318-0.037-0.557-0.056-0.717-0.056
				c-0.154,0-0.388,0.019-0.703,0.056c-0.315,0.037-0.549,0.056-0.703,0.056v-5.495c-0.277-0.438-0.777-1.264-1.499-2.479
				c-0.592-0.999-1.089-1.838-1.489-2.516c-0.493-0.851-0.987-1.699-1.48-2.544c0.302,0,0.583,0.012,0.842,0.037
				s0.57,0.052,0.934,0.083c0.203,0,0.507-0.02,0.911-0.06c0.404-0.04,0.708-0.06,0.911-0.06c0.518,0.974,1.085,2.1,1.702,3.376
				c0.321,0.629,0.567,1.107,0.74,1.434c0.228,0.432,0.398,0.712,0.509,0.842c0.382-0.444,1.014-1.563,1.896-3.358
				c0.432-0.869,0.798-1.634,1.101-2.294c0.167,0.025,0.322,0.043,0.467,0.056c0.145,0.012,0.319,0.019,0.523,0.019
				c0.16,0,0.336-0.009,0.527-0.028c0.191-0.018,0.342-0.034,0.453-0.046c-0.456,0.759-0.937,1.554-1.443,2.387
				c-0.654,1.085-1.132,1.881-1.434,2.387C285.857,21.245,285.413,22.041,285.056,22.719z M286.536,11.582h0.675
				c-0.136,0.709-0.336,1.252-0.601,1.628c-0.352,0.506-0.82,0.759-1.406,0.759c-0.241,0-0.459-0.037-0.657-0.111
				c-0.056-0.025-0.247-0.119-0.574-0.282c-0.327-0.163-0.567-0.279-0.721-0.347c-0.302-0.136-0.533-0.203-0.694-0.203
				c-0.253,0-0.442,0.106-0.569,0.319c-0.127,0.213-0.19,0.408-0.19,0.587h-0.684c0-0.654,0.228-1.233,0.684-1.739
				c0.364-0.407,0.805-0.61,1.323-0.61c0.29,0,0.62,0.083,0.99,0.25c0.265,0.136,0.453,0.231,0.564,0.287
				c0.191,0.111,0.368,0.2,0.532,0.268c0.163,0.068,0.313,0.102,0.449,0.102c0.216,0,0.401-0.093,0.555-0.278
				C286.298,12.094,286.406,11.884,286.536,11.582z"/>
		</g>
	</g>
	<g>
		<path fill="#E0BD6D" d="M67.91,34.319L50.042,57.991l-2.433-14.712L41.875,8.018L36.14,43.279l-2.433,14.712L15.839,34.319
			l8.546,25.861L6.357,46.067l24.049,31.885h0.157c0,0,1.223-5.77,6.625-13.662c1.509-2.205,6.404-8.69,4.535-11.583
			c0,0-1.214-1.835-4.855-0.747c0,0,0.593-1.317,1.537-1.521c0,0,0.271-3.008,3.548-3.008c0,0,5.798,0.177,2.939,7.179
			c-2.34,5.733-9.507,21.27,8.294,23.343h0.157l24.049-31.885L59.365,60.179L67.91,34.319z"/>
		<path fill="#E0BD6D" d="M41.876,6.257c0-1.096,0.838-2.099,1.357-2.623c0.405-0.408,0.706-0.933,0.706-1.555
			c0-1.148-0.924-2.08-2.063-2.08c-1.14,0-2.064,0.931-2.064,2.08c0,0.622,0.301,1.147,0.706,1.555
			C41.038,4.158,41.876,5.161,41.876,6.257"/>
		<path fill="#E0BD6D" d="M25.393,18.219c0.665,0.313,1.793,0.967,2.166,1.996c-0.372-1.03,0.076-2.262,0.385-2.932
			c0.242-0.523,0.347-1.12,0.136-1.705c-0.39-1.079-1.574-1.635-2.645-1.243c-1.071,0.393-1.623,1.587-1.233,2.666
			C24.413,17.587,24.874,17.976,25.393,18.219"/>
		<polygon fill="#E0BD6D" points="56.381,46.936 55.556,21.762 48.917,41.818 50.98,54.291 		"/>
		<path fill="#E0BD6D" d="M71.116,31.044c0.553-0.149,1.074-0.452,1.383-0.991c0.57-0.995,0.232-2.267-0.756-2.841
			c-0.987-0.574-2.249-0.233-2.819,0.761c-0.309,0.539-0.308,1.145-0.16,1.703c0.19,0.714,0.418,2.006-0.125,2.955
			C69.183,31.682,70.407,31.236,71.116,31.044"/>
		<path fill="#E0BD6D" d="M56.191,20.216c0.372-1.03,1.501-1.684,2.166-1.996c0.518-0.244,0.98-0.634,1.191-1.218
			c0.389-1.08-0.163-2.273-1.233-2.666c-1.071-0.393-2.256,0.164-2.645,1.243c-0.212,0.584-0.106,1.182,0.136,1.705
			C56.115,17.954,56.562,19.187,56.191,20.216"/>
		<path fill="#E0BD6D" d="M83.148,40.145c-0.806-0.812-2.113-0.812-2.919,0c-0.436,0.44-0.592,1.026-0.592,1.603
			c0,0.74-0.111,2.047-0.88,2.822c0.769-0.775,2.066-0.887,2.8-0.887c0.572,0,1.154-0.157,1.59-0.597
			C83.954,42.274,83.954,40.958,83.148,40.145"/>
		<polygon fill="#E0BD6D" points="27.368,46.936 32.769,54.291 34.832,41.818 28.193,21.762 		"/>
		<path fill="#E0BD6D" d="M3.522,40.145c-0.806-0.812-2.113-0.812-2.918,0c-0.806,0.812-0.806,2.129,0,2.941
			c0.436,0.44,1.017,0.597,1.59,0.597c0.734,0,2.031,0.112,2.8,0.887c-0.769-0.775-0.88-2.082-0.88-2.822
			C4.114,41.172,3.959,40.585,3.522,40.145"/>
		<path fill="#E0BD6D" d="M12.566,31.044c0.709,0.192,1.933,0.638,2.477,1.587c-0.544-0.949-0.315-2.241-0.125-2.955
			c0.148-0.557,0.148-1.164-0.16-1.703c-0.57-0.995-1.832-1.335-2.819-0.761c-0.987,0.574-1.325,1.846-0.755,2.841
			C11.491,30.592,12.013,30.894,12.566,31.044"/>
	</g>
</g>
</svg>
